<svg xmlns="http://www.w3.org/2000/svg" xmlns:xlink="http://www.w3.org/1999/xlink" width="6912" zoomAndPan="magnify" viewBox="0 0 5184 1541.999932" height="2056" preserveAspectRatio="xMidYMid meet" version="1.0"><defs><clipPath id="id1"><path d="M 680 1390 L 799 1390 L 799 1509 L 680 1509 Z M 680 1390 " clip-rule="nonzero"/></clipPath><clipPath id="id2"><path d="M -1172.796875 2043.609375 L 47.957031 595.835938 L 1495.730469 1816.589844 L 274.976562 3264.363281 Z M -1172.796875 2043.609375 " clip-rule="nonzero"/></clipPath><clipPath id="id3"><path d="M -1174.757812 2045.933594 L 49.863281 593.574219 L 1497.636719 1814.324219 L 273.019531 3266.6875 Z M -1174.757812 2045.933594 " clip-rule="nonzero"/></clipPath><clipPath id="id4"><path d="M 12 1292 L 297 1292 L 297 1501 L 12 1501 Z M 12 1292 " clip-rule="nonzero"/></clipPath><clipPath id="id5"><path d="M -1172.796875 2043.609375 L 47.957031 595.835938 L 1495.730469 1816.589844 L 274.976562 3264.363281 Z M -1172.796875 2043.609375 " clip-rule="nonzero"/></clipPath><clipPath id="id6"><path d="M -1174.757812 2045.933594 L 49.863281 593.574219 L 1497.636719 1814.324219 L 273.019531 3266.6875 Z M -1174.757812 2045.933594 " clip-rule="nonzero"/></clipPath><clipPath id="id7"><path d="M 1844 1435 L 1924 1435 L 1924 1515 L 1844 1515 Z M 1844 1435 " clip-rule="nonzero"/></clipPath><clipPath id="id8"><path d="M 985.320312 1868.867188 L 2077.453125 1254.144531 L 2692.175781 2346.273438 L 1600.042969 2961 Z M 985.320312 1868.867188 " clip-rule="nonzero"/></clipPath><clipPath id="id9"><path d="M 983.566406 1869.855469 L 2079.621094 1252.921875 L 2694.34375 2345.054688 L 1598.292969 2961.984375 Z M 983.566406 1869.855469 " clip-rule="nonzero"/></clipPath><clipPath id="id10"><path d="M 58.210938 369.019531 L 1063.164062 369.019531 L 1063.164062 1171 L 58.210938 1171 Z M 58.210938 369.019531 " clip-rule="nonzero"/></clipPath><clipPath id="id11"><path d="M 3741 434 L 3856 434 L 3856 549 L 3741 549 Z M 3741 434 " clip-rule="nonzero"/></clipPath><clipPath id="id12"><path d="M 3769.769531 -766.820312 L 5465.300781 -117.113281 L 4815.59375 1578.417969 L 3120.0625 928.710938 Z M 3769.769531 -766.820312 " clip-rule="nonzero"/></clipPath><clipPath id="id13"><path d="M 3767.046875 -767.863281 L 5468.183594 -116.007812 L 4818.476562 1579.523438 L 3117.339844 927.667969 Z M 3767.046875 -767.863281 " clip-rule="nonzero"/></clipPath><clipPath id="id14"><path d="M 3618 940 L 3733 940 L 3733 1055 L 3618 1055 Z M 3618 940 " clip-rule="nonzero"/></clipPath><clipPath id="id15"><path d="M 3769.769531 -766.820312 L 5465.300781 -117.113281 L 4815.59375 1578.417969 L 3120.0625 928.710938 Z M 3769.769531 -766.820312 " clip-rule="nonzero"/></clipPath><clipPath id="id16"><path d="M 3767.046875 -767.863281 L 5468.183594 -116.007812 L 4818.476562 1579.523438 L 3117.339844 927.667969 Z M 3767.046875 -767.863281 " clip-rule="nonzero"/></clipPath><clipPath id="id17"><path d="M 4853 721 L 4967 721 L 4967 836 L 4853 836 Z M 4853 721 " clip-rule="nonzero"/></clipPath><clipPath id="id18"><path d="M 3769.769531 -766.820312 L 5465.300781 -117.113281 L 4815.59375 1578.417969 L 3120.0625 928.710938 Z M 3769.769531 -766.820312 " clip-rule="nonzero"/></clipPath><clipPath id="id19"><path d="M 3767.046875 -767.863281 L 5468.183594 -116.007812 L 4818.476562 1579.523438 L 3117.339844 927.667969 Z M 3767.046875 -767.863281 " clip-rule="nonzero"/></clipPath><clipPath id="id20"><path d="M 3406 167 L 3521 167 L 3521 281 L 3406 281 Z M 3406 167 " clip-rule="nonzero"/></clipPath><clipPath id="id21"><path d="M 3769.769531 -766.820312 L 5465.300781 -117.113281 L 4815.59375 1578.417969 L 3120.0625 928.710938 Z M 3769.769531 -766.820312 " clip-rule="nonzero"/></clipPath><clipPath id="id22"><path d="M 3767.046875 -767.863281 L 5468.183594 -116.007812 L 4818.476562 1579.523438 L 3117.339844 927.667969 Z M 3767.046875 -767.863281 " clip-rule="nonzero"/></clipPath><clipPath id="id23"><path d="M 4285 43 L 4399 43 L 4399 158 L 4285 158 Z M 4285 43 " clip-rule="nonzero"/></clipPath><clipPath id="id24"><path d="M 3769.769531 -766.820312 L 5465.300781 -117.113281 L 4815.59375 1578.417969 L 3120.0625 928.710938 Z M 3769.769531 -766.820312 " clip-rule="nonzero"/></clipPath><clipPath id="id25"><path d="M 3767.046875 -767.863281 L 5468.183594 -116.007812 L 4818.476562 1579.523438 L 3117.339844 927.667969 Z M 3767.046875 -767.863281 " clip-rule="nonzero"/></clipPath><clipPath id="id26"><path d="M 4428 1261 L 4543 1261 L 4543 1375 L 4428 1375 Z M 4428 1261 " clip-rule="nonzero"/></clipPath><clipPath id="id27"><path d="M 3769.769531 -766.820312 L 5465.300781 -117.113281 L 4815.59375 1578.417969 L 3120.0625 928.710938 Z M 3769.769531 -766.820312 " clip-rule="nonzero"/></clipPath><clipPath id="id28"><path d="M 3767.046875 -767.863281 L 5468.183594 -116.007812 L 4818.476562 1579.523438 L 3117.339844 927.667969 Z M 3767.046875 -767.863281 " clip-rule="nonzero"/></clipPath><clipPath id="id29"><path d="M 4337 716 L 4610 716 L 4610 918 L 4337 918 Z M 4337 716 " clip-rule="nonzero"/></clipPath><clipPath id="id30"><path d="M 3769.769531 -766.820312 L 5465.300781 -117.113281 L 4815.59375 1578.417969 L 3120.0625 928.710938 Z M 3769.769531 -766.820312 " clip-rule="nonzero"/></clipPath><clipPath id="id31"><path d="M 3767.046875 -767.863281 L 5468.183594 -116.007812 L 4818.476562 1579.523438 L 3117.339844 927.667969 Z M 3767.046875 -767.863281 " clip-rule="nonzero"/></clipPath><clipPath id="id32"><path d="M 4645 107 L 4877 107 L 4877 366 L 4645 366 Z M 4645 107 " clip-rule="nonzero"/></clipPath><clipPath id="id33"><path d="M 3769.769531 -766.820312 L 5465.300781 -117.113281 L 4815.59375 1578.417969 L 3120.0625 928.710938 Z M 3769.769531 -766.820312 " clip-rule="nonzero"/></clipPath><clipPath id="id34"><path d="M 3767.046875 -767.863281 L 5468.183594 -116.007812 L 4818.476562 1579.523438 L 3117.339844 927.667969 Z M 3767.046875 -767.863281 " clip-rule="nonzero"/></clipPath><clipPath id="id35"><path d="M 4051 257 L 4235 257 L 4235 533 L 4051 533 Z M 4051 257 " clip-rule="nonzero"/></clipPath><clipPath id="id36"><path d="M 3769.769531 -766.820312 L 5465.300781 -117.113281 L 4815.59375 1578.417969 L 3120.0625 928.710938 Z M 3769.769531 -766.820312 " clip-rule="nonzero"/></clipPath><clipPath id="id37"><path d="M 3767.046875 -767.863281 L 5468.183594 -116.007812 L 4818.476562 1579.523438 L 3117.339844 927.667969 Z M 3767.046875 -767.863281 " clip-rule="nonzero"/></clipPath><clipPath id="id38"><path d="M 4691 1087 L 4944 1087 L 4944 1325 L 4691 1325 Z M 4691 1087 " clip-rule="nonzero"/></clipPath><clipPath id="id39"><path d="M 3769.769531 -766.820312 L 5465.300781 -117.113281 L 4815.59375 1578.417969 L 3120.0625 928.710938 Z M 3769.769531 -766.820312 " clip-rule="nonzero"/></clipPath><clipPath id="id40"><path d="M 3767.046875 -767.863281 L 5468.183594 -116.007812 L 4818.476562 1579.523438 L 3117.339844 927.667969 Z M 3767.046875 -767.863281 " clip-rule="nonzero"/></clipPath><clipPath id="id41"><path d="M 3892 1002 L 4139 1002 L 4139 1248 L 3892 1248 Z M 3892 1002 " clip-rule="nonzero"/></clipPath><clipPath id="id42"><path d="M 3769.769531 -766.820312 L 5465.300781 -117.113281 L 4815.59375 1578.417969 L 3120.0625 928.710938 Z M 3769.769531 -766.820312 " clip-rule="nonzero"/></clipPath><clipPath id="id43"><path d="M 3767.046875 -767.863281 L 5468.183594 -116.007812 L 4818.476562 1579.523438 L 3117.339844 927.667969 Z M 3767.046875 -767.863281 " clip-rule="nonzero"/></clipPath><clipPath id="id44"><path d="M 3244 533 L 3497 533 L 3497 771 L 3244 771 Z M 3244 533 " clip-rule="nonzero"/></clipPath><clipPath id="id45"><path d="M 3769.769531 -766.820312 L 5465.300781 -117.113281 L 4815.59375 1578.417969 L 3120.0625 928.710938 Z M 3769.769531 -766.820312 " clip-rule="nonzero"/></clipPath><clipPath id="id46"><path d="M 3767.046875 -767.863281 L 5468.183594 -116.007812 L 4818.476562 1579.523438 L 3117.339844 927.667969 Z M 3767.046875 -767.863281 " clip-rule="nonzero"/></clipPath><clipPath id="id47"><path d="M 2605 1059 L 2695 1059 L 2695 1149 L 2605 1149 Z M 2605 1059 " clip-rule="nonzero"/></clipPath><clipPath id="id48"><path d="M 2216.941406 1148.445312 L 3550 675.410156 L 4023.035156 2008.46875 L 2689.976562 2481.503906 Z M 2216.941406 1148.445312 " clip-rule="nonzero"/></clipPath><clipPath id="id49"><path d="M 2214.800781 1149.207031 L 3552.101562 674.664062 L 4025.136719 2007.722656 L 2687.835938 2482.265625 Z M 2214.800781 1149.207031 " clip-rule="nonzero"/></clipPath><clipPath id="id50"><path d="M 3629 1442 L 3719 1442 L 3719 1531 L 3629 1531 Z M 3629 1442 " clip-rule="nonzero"/></clipPath><clipPath id="id51"><path d="M 2216.941406 1148.445312 L 3550 675.410156 L 4023.035156 2008.46875 L 2689.976562 2481.503906 Z M 2216.941406 1148.445312 " clip-rule="nonzero"/></clipPath><clipPath id="id52"><path d="M 2214.800781 1149.207031 L 3552.101562 674.664062 L 4025.136719 2007.722656 L 2687.835938 2482.265625 Z M 2214.800781 1149.207031 " clip-rule="nonzero"/></clipPath><clipPath id="id53"><path d="M 2950 1328 L 3039 1328 L 3039 1417 L 2950 1417 Z M 2950 1328 " clip-rule="nonzero"/></clipPath><clipPath id="id54"><path d="M 2216.941406 1148.445312 L 3550 675.410156 L 4023.035156 2008.46875 L 2689.976562 2481.503906 Z M 2216.941406 1148.445312 " clip-rule="nonzero"/></clipPath><clipPath id="id55"><path d="M 2214.800781 1149.207031 L 3552.101562 674.664062 L 4025.136719 2007.722656 L 2687.835938 2482.265625 Z M 2214.800781 1149.207031 " clip-rule="nonzero"/></clipPath><clipPath id="id56"><path d="M 3247 839 L 3337 839 L 3337 928 L 3247 928 Z M 3247 839 " clip-rule="nonzero"/></clipPath><clipPath id="id57"><path d="M 2216.941406 1148.445312 L 3550 675.410156 L 4023.035156 2008.46875 L 2689.976562 2481.503906 Z M 2216.941406 1148.445312 " clip-rule="nonzero"/></clipPath><clipPath id="id58"><path d="M 2214.800781 1149.207031 L 3552.101562 674.664062 L 4025.136719 2007.722656 L 2687.835938 2482.265625 Z M 2214.800781 1149.207031 " clip-rule="nonzero"/></clipPath><clipPath id="id59"><path d="M 2491 1288 L 2649 1288 L 2649 1500 L 2491 1500 Z M 2491 1288 " clip-rule="nonzero"/></clipPath><clipPath id="id60"><path d="M 2216.941406 1148.445312 L 3550 675.410156 L 4023.035156 2008.46875 L 2689.976562 2481.503906 Z M 2216.941406 1148.445312 " clip-rule="nonzero"/></clipPath><clipPath id="id61"><path d="M 2214.800781 1149.207031 L 3552.101562 674.664062 L 4025.136719 2007.722656 L 2687.835938 2482.265625 Z M 2214.800781 1149.207031 " clip-rule="nonzero"/></clipPath><clipPath id="id62"><path d="M 3198 1150 L 3411 1150 L 3411 1305 L 3198 1305 Z M 3198 1150 " clip-rule="nonzero"/></clipPath><clipPath id="id63"><path d="M 2216.941406 1148.445312 L 3550 675.410156 L 4023.035156 2008.46875 L 2689.976562 2481.503906 Z M 2216.941406 1148.445312 " clip-rule="nonzero"/></clipPath><clipPath id="id64"><path d="M 2214.800781 1149.207031 L 3552.101562 674.664062 L 4025.136719 2007.722656 L 2687.835938 2482.265625 Z M 2214.800781 1149.207031 " clip-rule="nonzero"/></clipPath><clipPath id="id65"><path d="M 2825 901 L 2966 901 L 2966 1117 L 2825 1117 Z M 2825 901 " clip-rule="nonzero"/></clipPath><clipPath id="id66"><path d="M 2216.941406 1148.445312 L 3550 675.410156 L 4023.035156 2008.46875 L 2689.976562 2481.503906 Z M 2216.941406 1148.445312 " clip-rule="nonzero"/></clipPath><clipPath id="id67"><path d="M 2214.800781 1149.207031 L 3552.101562 674.664062 L 4025.136719 2007.722656 L 2687.835938 2482.265625 Z M 2214.800781 1149.207031 " clip-rule="nonzero"/></clipPath><clipPath id="id68"><path d="M 2641 57 L 3153 57 L 3153 405 L 2641 405 Z M 2641 57 " clip-rule="nonzero"/></clipPath><clipPath id="id69"><path d="M 2696.234375 0 L 3200.34375 305.589844 L 3133.085938 416.542969 L 2628.976562 110.957031 Z M 2696.234375 0 " clip-rule="nonzero"/></clipPath><clipPath id="id70"><path d="M 2696.296875 -0.101562 L 3200.40625 305.488281 L 3132.757812 417.085938 L 2628.648438 111.496094 Z M 2696.296875 -0.101562 " clip-rule="nonzero"/></clipPath><clipPath id="id71"><path d="M 1364 62 L 1479 62 L 1479 176 L 1364 176 Z M 1364 62 " clip-rule="nonzero"/></clipPath><clipPath id="id72"><path d="M 399.84375 -58.347656 L 827.191406 -1823.089844 L 2591.933594 -1395.746094 L 2164.589844 369 Z M 399.84375 -58.347656 " clip-rule="nonzero"/></clipPath><clipPath id="id73"><path d="M 399.160156 -55.511719 L 827.917969 -1826.089844 L 2592.660156 -1398.746094 L 2163.90625 371.832031 Z M 399.160156 -55.511719 " clip-rule="nonzero"/></clipPath><clipPath id="id74"><path d="M 1740 27 L 1967 27 L 1967 287 L 1740 287 Z M 1740 27 " clip-rule="nonzero"/></clipPath><clipPath id="id75"><path d="M 399.84375 -58.347656 L 827.191406 -1823.089844 L 2591.933594 -1395.746094 L 2164.589844 369 Z M 399.84375 -58.347656 " clip-rule="nonzero"/></clipPath><clipPath id="id76"><path d="M 399.160156 -55.511719 L 827.917969 -1826.089844 L 2592.660156 -1398.746094 L 2163.90625 371.832031 Z M 399.160156 -55.511719 " clip-rule="nonzero"/></clipPath><clipPath id="id77"><path d="M 1997 1135 L 2314 1135 L 2314 1304 L 1997 1304 Z M 1997 1135 " clip-rule="nonzero"/></clipPath><clipPath id="id78"><path d="M 2019.648438 1110.675781 L 2334.5 1240.320312 L 2305.945312 1309.671875 L 1991.09375 1180.027344 Z M 2019.648438 1110.675781 " clip-rule="nonzero"/></clipPath><clipPath id="id79"><path d="M 2019.675781 1110.613281 L 2334.527344 1240.257812 L 2305.972656 1309.609375 L 1991.117188 1179.964844 Z M 2019.675781 1110.613281 " clip-rule="nonzero"/></clipPath><clipPath id="id80"><path d="M 2111 503 L 2686 503 L 2686 731 L 2111 731 Z M 2111 503 " clip-rule="nonzero"/></clipPath><clipPath id="id81"><path d="M 2708.214844 624.441406 L 2133.789062 756.894531 L 2104.632812 630.464844 L 2679.0625 498.011719 Z M 2708.214844 624.441406 " clip-rule="nonzero"/></clipPath><clipPath id="id82"><path d="M 2708.242188 624.558594 L 2133.8125 757.011719 L 2104.492188 629.847656 L 2678.917969 497.394531 Z M 2708.242188 624.558594 " clip-rule="nonzero"/></clipPath><clipPath id="id83"><path d="M 225 102 L 339 102 L 339 217 L 225 217 Z M 225 102 " clip-rule="nonzero"/></clipPath><clipPath id="id84"><path d="M 229.925781 -2044.128906 L 1649.613281 -912.125 L 517.613281 507.566406 L -902.078125 -624.4375 Z M 229.925781 -2044.128906 " clip-rule="nonzero"/></clipPath><clipPath id="id85"><path d="M 227.644531 -2045.945312 L 1652.027344 -910.203125 L 520.023438 509.488281 L -904.355469 -626.253906 Z M 227.644531 -2045.945312 " clip-rule="nonzero"/></clipPath><clipPath id="id86"><path d="M 524 30 L 753 30 L 753 289 L 524 289 Z M 524 30 " clip-rule="nonzero"/></clipPath><clipPath id="id87"><path d="M 229.925781 -2044.128906 L 1649.613281 -912.125 L 517.613281 507.566406 L -902.078125 -624.4375 Z M 229.925781 -2044.128906 " clip-rule="nonzero"/></clipPath><clipPath id="id88"><path d="M 227.644531 -2045.945312 L 1652.027344 -910.203125 L 520.023438 509.488281 L -904.355469 -626.253906 Z M 227.644531 -2045.945312 " clip-rule="nonzero"/></clipPath><clipPath id="id89"><path d="M 2307 0 L 2421 0 L 2421 113 L 2307 113 Z M 2307 0 " clip-rule="nonzero"/></clipPath><clipPath id="id90"><path d="M 2759.628906 450.570312 L 1207.890625 -492.320312 L 2150.78125 -2044.0625 L 3702.523438 -1101.167969 Z M 2759.628906 450.570312 " clip-rule="nonzero"/></clipPath><clipPath id="id91"><path d="M 2762.121094 452.085938 L 1205.253906 -493.925781 L 2148.144531 -2045.664062 L 3705.015625 -1099.65625 Z M 2762.121094 452.085938 " clip-rule="nonzero"/></clipPath><clipPath id="id92"><path d="M 2600 0 L 2870 0 L 2870 2 L 2600 2 Z M 2600 0 " clip-rule="nonzero"/></clipPath><clipPath id="id93"><path d="M 2759.628906 450.570312 L 1207.890625 -492.320312 L 2150.78125 -2044.0625 L 3702.523438 -1101.167969 Z M 2759.628906 450.570312 " clip-rule="nonzero"/></clipPath><clipPath id="id94"><path d="M 2762.121094 452.085938 L 1205.253906 -493.925781 L 2148.144531 -2045.664062 L 3705.015625 -1099.65625 Z M 2762.121094 452.085938 " clip-rule="nonzero"/></clipPath><clipPath id="id95"><path d="M 1331 400 L 1537.070312 400 L 1537.070312 596.078125 L 1331 596.078125 Z M 1331 400 " clip-rule="nonzero"/></clipPath><clipPath id="id96"><path d="M 1330.820312 399.578125 L 1537 399.578125 L 1537 596 L 1330.820312 596 Z M 1330.820312 399.578125 " clip-rule="nonzero"/></clipPath><clipPath id="id97"><path d="M 1400 1249 L 1520 1249 L 1520 1368 L 1400 1368 Z M 1400 1249 " clip-rule="nonzero"/></clipPath><clipPath id="id98"><path d="M 1255.96875 3598.171875 L -83.113281 2259.085938 L 1255.96875 920.003906 L 2595.050781 2259.085938 Z M 1255.96875 3598.171875 " clip-rule="nonzero"/></clipPath><clipPath id="id99"><path d="M 1258.117188 3600.320312 L -85.207031 2256.992188 L 1253.875 917.910156 L 2597.203125 2261.234375 Z M 1258.117188 3600.320312 " clip-rule="nonzero"/></clipPath><clipPath id="id100"><path d="M 972 1129 L 1200 1129 L 1200 1405 L 972 1405 Z M 972 1129 " clip-rule="nonzero"/></clipPath><clipPath id="id101"><path d="M 1255.96875 3598.171875 L -83.113281 2259.085938 L 1255.96875 920.003906 L 2595.050781 2259.085938 Z M 1255.96875 3598.171875 " clip-rule="nonzero"/></clipPath><clipPath id="id102"><path d="M 1258.117188 3600.320312 L -85.207031 2256.992188 L 1253.875 917.910156 L 2597.203125 2261.234375 Z M 1258.117188 3600.320312 " clip-rule="nonzero"/></clipPath><clipPath id="id103"><path d="M 918 79 L 1236 79 L 1236 248 L 918 248 Z M 918 79 " clip-rule="nonzero"/></clipPath><clipPath id="id104"><path d="M 941.054688 54.625 L 1255.910156 184.269531 L 1227.351562 253.621094 L 912.5 123.976562 Z M 941.054688 54.625 " clip-rule="nonzero"/></clipPath><clipPath id="id105"><path d="M 941.082031 54.5625 L 1255.933594 184.207031 L 1227.378906 253.558594 L 912.527344 123.914062 Z M 941.082031 54.5625 " clip-rule="nonzero"/></clipPath></defs><g clip-path="url(#id1)"><g clip-path="url(#id2)"><g clip-path="url(#id3)"><path fill="#ed9b40" d="M 777.867188 1404.285156 C 802.820312 1425.328125 806.007812 1462.769531 784.964844 1487.722656 C 763.921875 1512.679688 726.484375 1515.863281 701.527344 1494.820312 C 676.570312 1473.777344 673.382812 1436.335938 694.425781 1411.378906 C 715.46875 1386.425781 752.910156 1383.242188 777.867188 1404.285156 " fill-opacity="1" fill-rule="nonzero"/></g></g></g><g clip-path="url(#id4)"><g clip-path="url(#id5)"><g clip-path="url(#id6)"><path fill="#ffadad" d="M 243.972656 1322.011719 C 268.75 1340.914062 286.582031 1366.875 295.105469 1397.394531 C 300.195312 1416.085938 289.441406 1435.320312 270.75 1440.410156 C 252.058594 1445.503906 232.824219 1434.746094 227.734375 1416.054688 C 222.351562 1397.117188 209.953125 1381.203125 192.707031 1371.625 C 175.460938 1362.046875 155.304688 1359.453125 136.367188 1364.835938 C 96.890625 1375.734375 73.714844 1416.765625 84.859375 1455.953125 C 89.953125 1474.644531 79.199219 1493.875 60.503906 1498.96875 C 41.8125 1504.058594 22.582031 1493.304688 17.488281 1474.613281 C -3.84375 1398.039062 41.132812 1318.789062 117.171875 1297.507812 C 154.265625 1287.082031 192.921875 1291.875 226.300781 1310.582031 C 233.082031 1314.316406 238.75 1317.605469 243.972656 1322.011719 " fill-opacity="1" fill-rule="nonzero"/></g></g></g><g clip-path="url(#id7)"><g clip-path="url(#id8)"><g clip-path="url(#id9)"><path fill="#ee4266" d="M 1918.179688 1455.636719 C 1928.777344 1474.464844 1922.074219 1498.414062 1903.238281 1509.015625 C 1884.40625 1519.617188 1860.453125 1512.921875 1849.855469 1494.09375 C 1839.257812 1475.269531 1845.964844 1451.316406 1864.796875 1440.714844 C 1883.628906 1430.117188 1907.585938 1436.8125 1918.179688 1455.636719 " fill-opacity="1" fill-rule="nonzero"/></g></g></g><g clip-path="url(#id10)"><path fill="#50fa7b" d="M 643.105469 369.746094 L 656.191406 373.671875 L 1033.066406 482.285156 L 1063.164062 491.445312 L 1063.164062 555.566406 L 1036.992188 566.039062 L 684.980469 704.75 L 677.128906 707.367188 L 444.199219 707.367188 L 437.65625 704.75 L 215.195312 621 L 213.886719 621 C 176.984375 606.238281 141.914062 630.316406 141.914062 669.417969 L 141.914062 673.34375 C 141.914062 697.472656 154.109375 715.792969 177.246094 726.996094 C 178.1875 727.46875 178.871094 727.886719 179.863281 728.304688 L 560.664062 872.25 L 876.035156 751.859375 C 964.757812 716.371094 1063.164062 783.894531 1063.164062 878.792969 L 1063.164062 882.71875 C 1063.164062 941.347656 1025.792969 991.230469 975.488281 1013.582031 L 974.179688 1013.582031 L 972.871094 1014.890625 L 575.058594 1165.378906 L 560.664062 1170.613281 L 546.269531 1165.378906 L 281.933594 1064.617188 L 283.242188 1062 L 58.164062 979.558594 L 58.164062 887.953125 L 312.03125 986.101562 L 312.03125 987.410156 L 313.339844 987.410156 L 560.664062 1081.628906 L 941.464844 937.683594 L 944.082031 936.375 C 967.21875 925.171875 979.414062 906.851562 979.414062 882.71875 L 979.414062 878.792969 C 979.414062 839.695312 944.34375 815.613281 907.441406 830.375 L 906.132812 830.375 L 575.058594 956.003906 L 560.664062 961.238281 L 546.269531 956.003906 L 148.457031 805.511719 L 147.148438 804.203125 L 145.839844 804.203125 C 95.539062 781.851562 58.164062 731.96875 58.164062 673.34375 L 58.164062 669.417969 C 58.164062 603.464844 106.636719 553.945312 165.46875 539.863281 L 165.46875 538.554688 L 178.554688 534.628906 L 630.019531 374.980469 Z M 644.414062 458.730469 L 322.5 571.273438 L 459.902344 623.617188 L 461.210938 623.617188 L 560.664062 556.875 L 660.117188 623.617188 L 896.972656 530.703125 Z M 644.414062 458.730469 " fill-opacity="1" fill-rule="nonzero"/></g><g clip-path="url(#id11)"><g clip-path="url(#id12)"><g clip-path="url(#id13)"><path fill="#ee4266" d="M 3851.484375 511.710938 C 3840.285156 540.9375 3807.375 555.613281 3778.148438 544.410156 C 3748.917969 533.210938 3734.242188 500.304688 3745.441406 471.078125 C 3756.640625 441.847656 3789.546875 427.175781 3818.777344 438.375 C 3848.007812 449.578125 3862.683594 482.484375 3851.484375 511.710938 " fill-opacity="1" fill-rule="nonzero"/></g></g></g><g clip-path="url(#id14)"><g clip-path="url(#id15)"><g clip-path="url(#id16)"><path fill="#ee4266" d="M 3728.421875 1018.007812 C 3717.21875 1047.234375 3684.3125 1061.90625 3655.082031 1050.707031 C 3625.851562 1039.507812 3611.175781 1006.601562 3622.375 977.371094 C 3633.574219 948.144531 3666.484375 933.472656 3695.714844 944.671875 C 3724.945312 955.875 3739.621094 988.78125 3728.421875 1018.007812 " fill-opacity="1" fill-rule="nonzero"/></g></g></g><g clip-path="url(#id17)"><g clip-path="url(#id18)"><g clip-path="url(#id19)"><path fill="#ed9b40" d="M 4963.175781 798.554688 C 4951.976562 827.78125 4919.066406 842.453125 4889.835938 831.253906 C 4860.605469 820.054688 4845.929688 787.144531 4857.128906 757.917969 C 4868.328125 728.691406 4901.238281 714.019531 4930.46875 725.21875 C 4959.699219 736.417969 4974.375 769.324219 4963.175781 798.554688 " fill-opacity="1" fill-rule="nonzero"/></g></g></g><g clip-path="url(#id20)"><g clip-path="url(#id21)"><g clip-path="url(#id22)"><path fill="#ed9b40" d="M 3516.285156 244.125 C 3505.085938 273.351562 3472.175781 288.023438 3442.949219 276.824219 C 3413.71875 265.625 3399.042969 232.714844 3410.242188 203.488281 C 3421.441406 174.261719 3454.347656 159.589844 3483.578125 170.789062 C 3512.808594 181.988281 3527.484375 214.898438 3516.285156 244.125 " fill-opacity="1" fill-rule="nonzero"/></g></g></g><g clip-path="url(#id23)"><g clip-path="url(#id24)"><g clip-path="url(#id25)"><path fill="#49e4d8" d="M 4395.058594 120.558594 C 4383.859375 149.785156 4350.949219 164.457031 4321.71875 153.257812 C 4292.492188 142.054688 4277.816406 109.148438 4289.015625 79.921875 C 4300.214844 50.695312 4333.121094 36.023438 4362.351562 47.222656 C 4391.582031 58.421875 4406.257812 91.328125 4395.058594 120.558594 " fill-opacity="1" fill-rule="nonzero"/></g></g></g><g clip-path="url(#id26)"><g clip-path="url(#id27)"><g clip-path="url(#id28)"><path fill="#49e4d8" d="M 4538.507812 1338.167969 C 4527.308594 1367.394531 4494.402344 1382.066406 4465.171875 1370.867188 C 4435.941406 1359.667969 4421.265625 1326.757812 4432.464844 1297.53125 C 4443.664062 1268.304688 4476.570312 1253.632812 4505.800781 1264.832031 C 4535.03125 1276.03125 4549.707031 1308.9375 4538.507812 1338.167969 " fill-opacity="1" fill-rule="nonzero"/></g></g></g><g clip-path="url(#id29)"><g clip-path="url(#id30)"><g clip-path="url(#id31)"><path fill="#8c52ff" d="M 4389.351562 891.253906 C 4365.363281 873.488281 4347.5625 848.738281 4338.824219 819.667969 C 4333.496094 802.035156 4343.769531 783.367188 4361.402344 778.039062 C 4379.035156 772.714844 4397.707031 782.988281 4403.035156 800.617188 C 4408.570312 818.71875 4420.6875 833.886719 4437.242188 842.570312 C 4454.003906 851.71875 4473.160156 853.605469 4491.265625 848.070312 C 4528.75 836.710938 4550.074219 797.332031 4539.183594 759.636719 C 4533.855469 742.007812 4544.128906 723.335938 4561.757812 718.011719 C 4579.390625 712.683594 4598.0625 722.957031 4603.390625 740.589844 C 4625.070312 813.207031 4583.40625 890.394531 4510.789062 912.066406 C 4475.523438 922.71875 4438.019531 918.867188 4405.722656 901.425781 C 4399.867188 898.402344 4394.269531 894.699219 4389.351562 891.253906 " fill-opacity="1" fill-rule="nonzero"/></g></g></g><g clip-path="url(#id32)"><g clip-path="url(#id33)"><g clip-path="url(#id34)"><path fill="#8c52ff" d="M 4869.546875 289.125 C 4860.226562 317.511719 4842.332031 341.835938 4817.371094 359.164062 C 4802.046875 369.660156 4781.238281 365.976562 4770.742188 350.648438 C 4760.242188 335.324219 4763.925781 314.519531 4779.253906 304.023438 C 4794.710938 293.1875 4805.21875 276.945312 4808.460938 258.3125 C 4811.707031 239.675781 4807.707031 220.605469 4796.871094 205.148438 C 4774.566406 172.828125 4730.101562 164.753906 4698.121094 187.1875 C 4682.792969 197.683594 4661.988281 194 4651.488281 178.671875 C 4640.992188 163.347656 4644.675781 142.542969 4660 132.046875 C 4722.636719 88.621094 4808.578125 104.402344 4851.804688 166.566406 C 4872.929688 196.878906 4880.765625 233.398438 4874.328125 269.519531 C 4873.085938 276.835938 4871.890625 283.007812 4869.546875 289.125 " fill-opacity="1" fill-rule="nonzero"/></g></g></g><g clip-path="url(#id35)"><g clip-path="url(#id36)"><g clip-path="url(#id37)"><path fill="#8c52ff" d="M 4198.226562 301.59375 C 4224.734375 330.070312 4238.894531 369.402344 4233.957031 410.773438 C 4225.324219 486.199219 4156.5625 540.527344 4081.132812 531.890625 C 4062.785156 529.929688 4049.699219 513.222656 4051.660156 494.875 C 4053.625 476.527344 4070.332031 463.445312 4088.679688 465.40625 C 4127.542969 469.777344 4162.761719 441.957031 4167.46875 403.226562 C 4171.835938 364.363281 4144.011719 329.148438 4105.277344 324.4375 C 4086.929688 322.476562 4073.84375 305.769531 4075.804688 287.421875 C 4077.765625 269.074219 4094.476562 255.992188 4112.824219 257.953125 C 4146.746094 261.988281 4176.453125 278.050781 4198.226562 301.59375 " fill-opacity="1" fill-rule="nonzero"/></g></g></g><g clip-path="url(#id38)"><g clip-path="url(#id39)"><g clip-path="url(#id40)"><path fill="#8c52ff" d="M 4781.066406 1089.683594 C 4819.15625 1082.84375 4859.988281 1092.253906 4892.476562 1118.34375 C 4951.308594 1166.222656 4960.359375 1253.488281 4912.140625 1312.183594 C 4900.449219 1326.414062 4879.390625 1328.476562 4865.160156 1316.789062 C 4850.929688 1305.097656 4848.863281 1284.039062 4860.554688 1269.808594 C 4885.390625 1239.574219 4880.8125 1194.554688 4850.445312 1170.054688 C 4820.203125 1145.21875 4775.183594 1149.792969 4750.683594 1180.160156 C 4738.996094 1194.386719 4717.933594 1196.453125 4703.703125 1184.761719 C 4689.472656 1173.074219 4687.40625 1152.015625 4699.097656 1137.785156 C 4720.414062 1111.65625 4750.054688 1095.339844 4781.066406 1089.683594 " fill-opacity="1" fill-rule="nonzero"/></g></g></g><g clip-path="url(#id41)"><g clip-path="url(#id42)"><g clip-path="url(#id43)"><path fill="#8c52ff" d="M 3893.117188 1149.714844 C 3890.453125 1110.886719 3904.070312 1071.28125 3933.589844 1042.058594 C 3987.5625 988.6875 4075.105469 989.105469 4128.355469 1043.417969 C 4141.253906 1056.546875 4141.359375 1077.632812 4128.101562 1090.871094 C 4114.972656 1103.769531 4093.882812 1103.871094 4080.644531 1090.613281 C 4053.066406 1062.898438 4008.039062 1062.402344 3980.320312 1089.976562 C 3952.605469 1117.554688 3952.113281 1162.578125 3979.691406 1190.292969 C 3992.589844 1203.421875 3992.695312 1224.507812 3979.4375 1237.746094 C 3966.3125 1250.644531 3945.222656 1250.75 3931.980469 1237.492188 C 3908.769531 1212.617188 3895.402344 1181.382812 3893.117188 1149.714844 " fill-opacity="1" fill-rule="nonzero"/></g></g></g><g clip-path="url(#id44)"><g clip-path="url(#id45)"><g clip-path="url(#id46)"><path fill="#8c52ff" d="M 3334.515625 535.386719 C 3372.605469 528.546875 3413.4375 537.957031 3445.925781 564.046875 C 3504.757812 611.925781 3513.808594 699.1875 3465.589844 757.882812 C 3453.902344 772.113281 3432.839844 774.175781 3418.609375 762.488281 C 3404.378906 750.796875 3402.3125 729.738281 3414.003906 715.511719 C 3438.84375 685.273438 3434.265625 640.257812 3403.894531 615.757812 C 3373.652344 590.917969 3328.632812 595.492188 3304.132812 625.859375 C 3292.445312 640.089844 3271.386719 642.152344 3257.152344 630.464844 C 3242.921875 618.773438 3240.859375 597.714844 3252.546875 583.488281 C 3273.523438 557.226562 3303.164062 540.910156 3334.515625 535.386719 " fill-opacity="1" fill-rule="nonzero"/></g></g></g><g clip-path="url(#id47)"><g clip-path="url(#id48)"><g clip-path="url(#id49)"><path fill="#ff66c4" d="M 2691.824219 1089.140625 C 2699.980469 1112.121094 2687.914062 1137.460938 2664.933594 1145.613281 C 2641.957031 1153.769531 2616.617188 1141.699219 2608.460938 1118.722656 C 2600.308594 1095.742188 2612.375 1070.402344 2635.351562 1062.246094 C 2658.332031 1054.09375 2683.671875 1066.160156 2691.824219 1089.140625 " fill-opacity="1" fill-rule="nonzero"/></g></g></g><g clip-path="url(#id50)"><g clip-path="url(#id51)"><g clip-path="url(#id52)"><path fill="#8c52ff" d="M 3715.714844 1471.910156 C 3723.871094 1494.886719 3711.804688 1520.230469 3688.824219 1528.382812 C 3665.847656 1536.535156 3640.507812 1524.46875 3632.351562 1501.488281 C 3624.199219 1478.511719 3636.265625 1453.171875 3659.242188 1445.015625 C 3682.222656 1436.863281 3707.5625 1448.929688 3715.714844 1471.910156 " fill-opacity="1" fill-rule="nonzero"/></g></g></g><g clip-path="url(#id53)"><g clip-path="url(#id54)"><g clip-path="url(#id55)"><path fill="#49e4d8" d="M 3036.226562 1357.726562 C 3044.378906 1380.707031 3032.3125 1406.046875 3009.335938 1414.203125 C 2986.355469 1422.355469 2961.015625 1410.289062 2952.859375 1387.308594 C 2944.707031 1364.328125 2956.773438 1338.988281 2979.75 1330.835938 C 3002.730469 1322.679688 3028.070312 1334.75 3036.226562 1357.726562 " fill-opacity="1" fill-rule="nonzero"/></g></g></g><g clip-path="url(#id56)"><g clip-path="url(#id57)"><g clip-path="url(#id58)"><path fill="#49e4d8" d="M 3333.582031 868.933594 C 3341.738281 891.914062 3329.671875 917.253906 3306.691406 925.40625 C 3283.714844 933.5625 3258.375 921.496094 3250.21875 898.515625 C 3242.066406 875.535156 3254.132812 850.195312 3277.109375 842.042969 C 3300.089844 833.886719 3325.429688 845.953125 3333.582031 868.933594 " fill-opacity="1" fill-rule="nonzero"/></g></g></g><g clip-path="url(#id59)"><g clip-path="url(#id60)"><g clip-path="url(#id61)"><path fill="#fbf8cc" d="M 2577.476562 1493.4375 C 2555.566406 1501.214844 2531.898438 1501.488281 2509.253906 1494.480469 C 2495.628906 1489.992188 2488.085938 1475.519531 2492.214844 1461.71875 C 2496.703125 1448.09375 2511.175781 1440.550781 2524.972656 1444.679688 C 2539.136719 1448.980469 2554.089844 1447.886719 2567.054688 1441.179688 C 2580.285156 1434.378906 2589.746094 1422.898438 2594.410156 1408.910156 C 2603.621094 1379.765625 2587.511719 1348.78125 2558.371094 1339.566406 C 2544.746094 1335.074219 2537.203125 1320.605469 2541.332031 1306.804688 C 2545.820312 1293.175781 2560.292969 1285.636719 2574.09375 1289.765625 C 2630.390625 1307.691406 2661.777344 1368.15625 2643.945312 1424.726562 C 2635.324219 1452.152344 2616.476562 1474.484375 2590.988281 1487.441406 C 2586.730469 1489.851562 2582.015625 1491.828125 2577.476562 1493.4375 " fill-opacity="1" fill-rule="nonzero"/></g></g></g><g clip-path="url(#id62)"><g clip-path="url(#id63)"><g clip-path="url(#id64)"><path fill="#fbf8cc" d="M 3402.527344 1217.515625 C 3411.371094 1239.046875 3413.078125 1262.511719 3407.0625 1285.402344 C 3403.296875 1299.375 3389.109375 1307.71875 3375.136719 1303.953125 C 3361.164062 1300.183594 3352.820312 1285.996094 3356.585938 1272.027344 C 3360.257812 1257.785156 3358.265625 1242.847656 3350.761719 1230.171875 C 3343.253906 1217.492188 3331.238281 1208.214844 3317 1204.542969 C 3287.433594 1196.683594 3257.019531 1214.398438 3249.425781 1243.867188 C 3245.660156 1257.839844 3231.472656 1266.183594 3217.5 1262.414062 C 3203.527344 1258.648438 3195.183594 1244.460938 3198.953125 1230.488281 C 3214.078125 1173.074219 3272.960938 1138.941406 3330.011719 1153.898438 C 3357.859375 1161.164062 3380.976562 1178.832031 3395.441406 1203.484375 C 3398.40625 1208.449219 3400.820312 1212.707031 3402.527344 1217.515625 " fill-opacity="1" fill-rule="nonzero"/></g></g></g><g clip-path="url(#id65)"><g clip-path="url(#id66)"><g clip-path="url(#id67)"><path fill="#fbf8cc" d="M 2856.003906 1083.832031 C 2834.78125 1062.179688 2822.808594 1031.832031 2825.507812 999.585938 C 2830.46875 940.664062 2882.527344 896.617188 2941.542969 901.851562 C 2955.824219 903.101562 2966.554688 915.539062 2965.402344 930.085938 C 2964.152344 944.371094 2951.714844 955.101562 2937.164062 953.945312 C 2906.808594 951.480469 2879.890625 973.96875 2877.425781 1004.324219 C 2874.964844 1034.683594 2897.449219 1061.601562 2927.808594 1064.066406 C 2942.089844 1065.316406 2952.820312 1077.753906 2951.664062 1092.304688 C 2950.417969 1106.585938 2937.980469 1117.316406 2923.429688 1116.160156 C 2897.097656 1113.171875 2873.378906 1101.429688 2856.003906 1083.832031 " fill-opacity="1" fill-rule="nonzero"/></g></g></g><g clip-path="url(#id68)"><g clip-path="url(#id69)"><g clip-path="url(#id70)"><path fill="#f1c0e8" d="M 2656.296875 128.257812 C 2648.273438 123.390625 2642.53125 114.976562 2641.425781 104.945312 C 2639.484375 87.753906 2651.839844 72.226562 2669.046875 70.277344 L 2779.074219 57.75 C 2793.226562 56.113281 2806.703125 64.285156 2811.800781 77.585938 L 2842.898438 158.320312 L 2928.753906 148.484375 C 2942.929688 146.863281 2956.382812 155.019531 2961.496094 168.335938 L 2992.503906 249.011719 L 3078.324219 239.152344 C 3092.496094 237.53125 3105.980469 245.667969 3111.070312 259.03125 L 3150.636719 362.214844 C 3156.835938 378.417969 3148.761719 396.535156 3132.597656 402.757812 C 3116.449219 408.941406 3098.320312 400.910156 3092.117188 384.769531 L 3061.296875 304.191406 L 2975.445312 314.042969 C 2961.277344 315.65625 2947.835938 307.511719 2942.699219 294.191406 L 2911.738281 213.53125 L 2825.863281 223.367188 C 2811.695312 224.980469 2798.230469 216.789062 2793.132812 203.550781 L 2762.035156 122.753906 L 2676.019531 132.558594 C 2668.894531 133.390625 2661.988281 131.707031 2656.296875 128.257812 " fill-opacity="1" fill-rule="nonzero"/></g></g></g><g clip-path="url(#id71)"><g clip-path="url(#id72)"><g clip-path="url(#id73)"><path fill="#ed9b40" d="M 1434.917969 63.65625 C 1465.339844 71.023438 1484.101562 101.785156 1476.734375 132.207031 C 1469.367188 162.628906 1438.613281 181.398438 1408.191406 174.03125 C 1377.769531 166.664062 1359.007812 135.90625 1366.375 105.480469 C 1373.742188 75.058594 1404.5 56.292969 1434.917969 63.65625 " fill-opacity="1" fill-rule="nonzero"/></g></g></g><g clip-path="url(#id74)"><g clip-path="url(#id75)"><g clip-path="url(#id76)"><path fill="#8c52ff" d="M 1747.050781 206.652344 C 1735.390625 169.75 1739.496094 128.050781 1761.214844 92.488281 C 1801.167969 28.011719 1886.558594 7.871094 1950.941406 48.179688 C 1966.550781 57.949219 1971.292969 78.570312 1961.519531 94.183594 C 1951.75 109.792969 1931.128906 114.535156 1915.519531 104.765625 C 1882.351562 84 1838.292969 94.300781 1817.878906 127.558594 C 1797.117188 160.730469 1807.414062 204.792969 1840.667969 225.203125 C 1856.277344 234.976562 1861.019531 255.597656 1851.246094 271.207031 C 1841.476562 286.820312 1820.855469 291.5625 1805.246094 281.789062 C 1776.519531 264.347656 1756.542969 237.039062 1747.050781 206.652344 " fill-opacity="1" fill-rule="nonzero"/></g></g></g><g clip-path="url(#id77)"><g clip-path="url(#id78)"><g clip-path="url(#id79)"><path fill="#49e4d8" d="M 2008.394531 1187.078125 C 2003.382812 1185.011719 1999.355469 1180.730469 1997.824219 1175.125 C 1995.175781 1165.523438 2000.824219 1155.617188 2010.460938 1153.003906 L 2072.070312 1136.261719 C 2079.992188 1134.097656 2088.40625 1137.5625 2092.507812 1144.679688 L 2117.480469 1187.851562 L 2165.550781 1174.753906 C 2173.484375 1172.59375 2181.890625 1176.054688 2186 1183.175781 L 2210.917969 1226.328125 L 2258.964844 1213.21875 C 2266.898438 1211.058594 2275.316406 1214.507812 2279.417969 1221.65625 L 2311.234375 1276.851562 C 2316.222656 1285.519531 2313.246094 1296.527344 2304.585938 1301.472656 C 2295.9375 1306.402344 2284.878906 1303.421875 2279.894531 1294.789062 L 2255.089844 1251.679688 L 2207.027344 1264.785156 C 2199.09375 1266.941406 2190.699219 1263.484375 2186.578125 1256.363281 L 2161.6875 1213.21875 L 2113.605469 1226.316406 C 2105.671875 1228.472656 2097.261719 1224.996094 2093.167969 1217.914062 L 2068.1875 1174.703125 L 2020.027344 1187.796875 C 2016.039062 1188.894531 2011.949219 1188.539062 2008.394531 1187.078125 " fill-opacity="1" fill-rule="nonzero"/></g></g></g><g clip-path="url(#id80)"><g clip-path="url(#id81)"><g clip-path="url(#id82)"><path fill="#ff66c4" d="M 2647.414062 504.660156 C 2656.558594 502.550781 2666.539062 504.578125 2674.328125 511 C 2687.707031 521.972656 2689.675781 541.714844 2678.703125 555.109375 L 2608.566406 640.808594 C 2599.566406 651.847656 2584.207031 655.390625 2571.277344 649.40625 L 2492.695312 613.222656 L 2438.011719 680.136719 C 2428.980469 691.183594 2413.648438 694.71875 2400.699219 688.742188 L 2322.21875 652.53125 L 2267.578125 719.4375 C 2258.546875 730.480469 2243.207031 734.050781 2230.246094 728.019531 L 2129.9375 681.644531 C 2114.195312 674.355469 2107.347656 655.738281 2114.597656 640.007812 C 2121.859375 624.3125 2140.453125 617.433594 2156.15625 624.675781 L 2234.433594 660.941406 L 2289.101562 594.023438 C 2298.132812 582.984375 2313.449219 579.453125 2326.414062 585.417969 L 2404.851562 621.648438 L 2459.550781 554.71875 C 2468.582031 543.683594 2483.945312 540.164062 2496.828125 546.097656 L 2575.457031 582.332031 L 2630.277344 515.328125 C 2634.800781 509.765625 2640.929688 506.15625 2647.414062 504.660156 " fill-opacity="1" fill-rule="nonzero"/></g></g></g><g clip-path="url(#id83)"><g clip-path="url(#id84)"><g clip-path="url(#id85)"><path fill="#49e4d8" d="M 326.148438 194.773438 C 306.632812 219.246094 270.832031 223.28125 246.355469 203.765625 C 221.882812 184.25 217.84375 148.445312 237.355469 123.972656 C 256.871094 99.5 292.671875 95.464844 317.148438 114.980469 C 341.625 134.496094 345.660156 170.300781 326.148438 194.773438 " fill-opacity="1" fill-rule="nonzero"/></g></g></g><g clip-path="url(#id86)"><g clip-path="url(#id87)"><g clip-path="url(#id88)"><path fill="#8be9fd" d="M 632.488281 31.269531 C 670.863281 36.269531 706.9375 57.585938 730.015625 92.277344 C 771.617188 155.707031 753.855469 241.621094 690.144531 282.988281 C 674.699219 293.015625 654.003906 288.613281 643.972656 273.167969 C 633.941406 257.722656 638.339844 237.027344 653.785156 227 C 686.605469 205.6875 695.855469 161.394531 674.316406 128.859375 C 653 96.035156 608.707031 86.785156 576.171875 108.320312 C 560.726562 118.351562 540.027344 113.949219 529.996094 98.503906 C 519.96875 83.058594 524.367188 62.359375 539.8125 52.332031 C 568.03125 33.871094 601.21875 27.28125 632.488281 31.269531 " fill-opacity="1" fill-rule="nonzero"/></g></g></g><g clip-path="url(#id89)"><g clip-path="url(#id90)"><g clip-path="url(#id91)"><path fill="#a2d2ff" d="M 2315.449219 26.078125 C 2331.703125 -0.667969 2366.707031 -9.210938 2393.457031 7.042969 C 2420.210938 23.300781 2428.753906 58.300781 2412.5 85.050781 C 2396.246094 111.800781 2361.242188 120.339844 2334.492188 104.085938 C 2307.742188 87.832031 2299.195312 52.828125 2315.449219 26.078125 " fill-opacity="1" fill-rule="nonzero"/></g></g></g><g clip-path="url(#id92)"><g clip-path="url(#id93)"><g clip-path="url(#id94)"><path fill="#8c52ff" d="M 2810.523438 -187.976562 C 2836.03125 -172.476562 2855.5 -149.148438 2866.890625 -120.933594 C 2873.476562 -103.730469 2865.191406 -84.488281 2848.109375 -77.40625 C 2830.90625 -70.824219 2811.664062 -79.109375 2804.582031 -96.191406 C 2797.375 -113.769531 2784.15625 -127.765625 2766.972656 -135.226562 C 2749.472656 -142.878906 2730.371094 -142.988281 2712.667969 -136.28125 C 2676.195312 -121.820312 2658.425781 -80.660156 2672.894531 -44.1875 C 2679.476562 -26.984375 2671.195312 -7.746094 2654.113281 -0.664062 C 2636.910156 5.917969 2617.667969 -2.367188 2610.585938 -19.445312 C 2582.761719 -90.011719 2617.476562 -170.277344 2688.234375 -198.402344 C 2722.515625 -212.066406 2760.027344 -211.417969 2793.589844 -196.5625 C 2799.445312 -194.28125 2805.234375 -191.1875 2810.523438 -187.976562 " fill-opacity="1" fill-rule="nonzero"/></g></g></g><path fill="#ed9b40" d="M 1401.433594 981.835938 C 1403.554688 969.910156 1406.992188 958.390625 1411.644531 947.273438 C 1410.429688 950.101562 1409.316406 952.933594 1408.105469 955.660156 C 1413.160156 944.039062 1419.527344 933.023438 1427.210938 922.914062 C 1425.390625 925.339844 1423.570312 927.664062 1421.652344 930.089844 C 1428.527344 921.398438 1436.207031 913.515625 1445.003906 906.644531 C 1442.578125 908.464844 1440.253906 910.28125 1437.828125 912.203125 C 1445.507812 906.339844 1453.699219 901.488281 1462.492188 897.75 C 1459.664062 898.960938 1456.832031 900.074219 1454.101562 901.289062 C 1463.402344 897.445312 1473.007812 894.71875 1483.015625 893.402344 C 1479.882812 893.808594 1476.746094 894.210938 1473.613281 894.617188 C 1482.308594 893.605469 1491.101562 893.503906 1499.796875 894.71875 C 1496.664062 894.3125 1493.527344 893.910156 1490.394531 893.503906 C 1497.472656 894.515625 1504.246094 896.335938 1510.816406 898.960938 C 1507.984375 897.75 1505.15625 896.636719 1502.425781 895.425781 C 1509.199219 898.355469 1515.464844 902.097656 1521.328125 906.542969 C 1518.902344 904.722656 1516.578125 902.902344 1514.152344 900.984375 C 1521.9375 907.25 1528.710938 914.527344 1534.875 922.410156 C 1533.054688 919.984375 1531.238281 917.660156 1529.316406 915.234375 C 1546.097656 937.164062 1559.039062 961.824219 1577.234375 982.847656 C 1596.847656 1005.488281 1624.949219 1021.859375 1654.367188 1027.722656 C 1688.234375 1034.390625 1721.796875 1030.449219 1752.933594 1015.390625 C 1779.320312 1002.65625 1801.863281 979.410156 1815.613281 953.640625 C 1832.191406 922.613281 1838.460938 886.53125 1829.664062 852.167969 C 1825.117188 834.28125 1804.191406 821.75 1786.195312 827.507812 C 1767.695312 833.472656 1756.675781 851.765625 1761.527344 870.96875 C 1762.4375 874.503906 1763.144531 878.144531 1763.652344 881.679688 C 1763.246094 878.546875 1762.84375 875.414062 1762.4375 872.28125 C 1763.449219 880.570312 1763.347656 888.753906 1762.335938 897.042969 C 1762.742188 893.910156 1763.144531 890.777344 1763.550781 887.644531 C 1762.234375 897.445312 1759.605469 906.945312 1755.867188 916.144531 C 1757.078125 913.3125 1758.191406 910.484375 1759.40625 907.753906 C 1755.261719 917.457031 1750.003906 926.554688 1743.632812 934.941406 C 1745.453125 932.515625 1747.273438 930.191406 1749.195312 927.765625 C 1743.027344 935.648438 1735.953125 942.824219 1727.964844 948.992188 C 1730.390625 947.171875 1732.714844 945.351562 1735.144531 943.433594 C 1728.066406 948.789062 1720.484375 953.132812 1712.296875 956.671875 C 1715.125 955.457031 1717.957031 954.347656 1720.6875 953.132812 C 1711.789062 956.875 1702.488281 959.398438 1692.988281 960.816406 C 1696.121094 960.410156 1699.253906 960.007812 1702.386719 959.601562 C 1691.976562 961.015625 1681.460938 961.015625 1671.050781 959.703125 C 1674.183594 960.109375 1677.316406 960.511719 1680.449219 960.917969 C 1670.140625 959.5 1660.132812 956.773438 1650.527344 952.730469 C 1653.359375 953.941406 1656.1875 955.054688 1658.917969 956.265625 C 1650.832031 952.730469 1643.25 948.382812 1636.171875 943.027344 C 1638.597656 944.847656 1640.921875 946.664062 1643.351562 948.585938 C 1634.859375 942.015625 1627.679688 934.132812 1621.109375 925.746094 C 1622.929688 928.171875 1624.75 930.496094 1626.667969 932.921875 C 1613.628906 915.839844 1603.316406 896.941406 1590.277344 879.761719 C 1582.390625 869.351562 1574.300781 859.34375 1564.09375 851.160156 C 1551.355469 840.949219 1538.210938 833.167969 1522.542969 828.417969 C 1468.253906 811.640625 1406.691406 836.097656 1372.316406 879.558594 C 1353.007812 904.015625 1338.957031 932.214844 1333.398438 963.039062 C 1331.679688 972.539062 1331.878906 981.636719 1336.933594 990.226562 C 1341.179688 997.503906 1349.570312 1004.578125 1358.0625 1006.394531 C 1367.0625 1008.417969 1377.269531 1008.011719 1385.257812 1002.859375 C 1392.535156 998.210938 1399.917969 990.730469 1401.433594 981.835938 Z M 1401.433594 981.835938 " fill-opacity="1" fill-rule="nonzero"/><g clip-path="url(#id95)"><path fill="#8be9fd" d="M 1434.210938 400.253906 L 1465.988281 464.683594 L 1537.070312 475.019531 L 1485.621094 525.207031 L 1497.804688 596.015625 L 1434.210938 562.585938 L 1370.578125 596.015625 L 1382.722656 525.207031 L 1331.3125 475.019531 L 1402.394531 464.683594 Z M 1434.210938 400.253906 " fill-opacity="1" fill-rule="nonzero"/></g><g clip-path="url(#id96)"><path fill="#8be9fd" d="M 1433.71875 399.636719 L 1465.535156 464.066406 L 1536.617188 474.402344 L 1485.167969 524.585938 L 1497.308594 595.398438 L 1433.71875 561.96875 L 1370.125 595.398438 L 1382.269531 524.585938 L 1330.820312 474.402344 L 1401.902344 464.066406 Z M 1433.71875 399.636719 " fill-opacity="1" fill-rule="nonzero"/><path fill="#8be9fd" d="M 1433.71875 399.636719 L 1465.535156 464.066406 L 1536.617188 474.402344 L 1485.167969 524.585938 L 1497.308594 595.398438 L 1433.71875 561.96875 L 1370.125 595.398438 L 1382.269531 524.585938 L 1330.820312 474.402344 L 1401.902344 464.066406 Z M 1433.71875 399.636719 " fill-opacity="1" fill-rule="nonzero"/><path fill="#8be9fd" d="M 1433.71875 399.636719 L 1465.535156 464.066406 L 1536.617188 474.402344 L 1485.167969 524.585938 L 1497.308594 595.398438 L 1433.71875 561.96875 L 1370.125 595.398438 L 1382.269531 524.585938 L 1330.820312 474.402344 L 1401.902344 464.066406 Z M 1433.71875 399.636719 " fill-opacity="1" fill-rule="nonzero"/></g><g clip-path="url(#id97)"><g clip-path="url(#id98)"><g clip-path="url(#id99)"><path fill="#49e4d8" d="M 1418 1266.699219 C 1441.082031 1243.613281 1478.65625 1243.613281 1501.738281 1266.695312 C 1524.820312 1289.777344 1524.820312 1327.355469 1501.738281 1350.4375 C 1478.65625 1373.519531 1441.078125 1373.519531 1417.996094 1350.4375 C 1394.914062 1327.355469 1394.914062 1289.78125 1418 1266.699219 " fill-opacity="1" fill-rule="nonzero"/></g></g></g><g clip-path="url(#id100)"><g clip-path="url(#id101)"><g clip-path="url(#id102)"><path fill="#ffadad" d="M 1081.421875 1400.367188 C 1042.234375 1390.707031 1007.34375 1364.402344 987.480469 1325.753906 C 951.785156 1255.167969 980.238281 1168.203125 1051.097656 1132.773438 C 1068.273438 1124.183594 1089.210938 1131.160156 1097.796875 1148.339844 C 1106.386719 1165.515625 1099.40625 1186.453125 1082.230469 1195.042969 C 1045.726562 1213.292969 1030.964844 1258.117188 1049.484375 1294.351562 C 1067.734375 1330.851562 1112.554688 1345.613281 1148.789062 1327.09375 C 1165.96875 1318.503906 1186.902344 1325.480469 1195.492188 1342.660156 C 1204.082031 1359.835938 1197.101562 1380.773438 1179.921875 1389.363281 C 1148.519531 1405.199219 1113.359375 1408.152344 1081.421875 1400.367188 " fill-opacity="1" fill-rule="nonzero"/></g></g></g><g clip-path="url(#id103)"><g clip-path="url(#id104)"><g clip-path="url(#id105)"><path fill="#ff79c6" d="M 929.800781 131.027344 C 924.789062 128.960938 920.761719 124.679688 919.230469 119.074219 C 916.582031 109.46875 922.234375 99.566406 931.867188 96.953125 L 993.476562 80.210938 C 1001.398438 78.046875 1009.816406 81.511719 1013.914062 88.628906 L 1038.890625 131.800781 L 1086.957031 118.703125 C 1094.894531 116.542969 1103.296875 120.003906 1107.40625 127.125 L 1132.324219 170.277344 L 1180.371094 157.167969 C 1188.304688 155.007812 1196.722656 158.453125 1200.824219 165.605469 L 1232.640625 220.800781 C 1237.628906 229.46875 1234.652344 240.472656 1225.996094 245.421875 C 1217.34375 250.351562 1206.289062 247.371094 1201.300781 238.738281 L 1176.496094 195.628906 L 1128.4375 208.734375 C 1120.5 210.890625 1112.105469 207.433594 1107.984375 200.3125 L 1083.09375 157.167969 L 1035.015625 170.265625 C 1027.082031 172.421875 1018.667969 168.945312 1014.574219 161.863281 L 989.59375 118.652344 L 941.433594 131.746094 C 937.445312 132.84375 933.355469 132.488281 929.800781 131.027344 " fill-opacity="1" fill-rule="nonzero"/></g></g></g></svg>